<svg width="64" height="68" viewBox="0 0 64 68" fill="none" xmlns="http://www.w3.org/2000/svg">
<mask id="path-1-outside-1_399_348" maskUnits="userSpaceOnUse" x="0" y="18" width="64" height="38" fill="black">
<rect fill="white" y="18" width="64" height="38"/>
<path d="M17.672 54.094C14.6013 54.094 11.8283 53.4673 9.353 52.214C6.909 50.9293 4.982 49.0337 3.572 46.527C2.162 44.0203 1.457 40.934 1.457 37.268C1.457 33.602 2.162 30.4373 3.572 27.774C5.01333 25.1107 6.97167 23.074 9.447 21.664C11.9537 20.2227 14.805 19.502 18.001 19.502C21.6983 19.502 24.534 20.019 26.508 21.053C28.482 22.087 29.469 23.6223 29.469 25.659C29.469 27.2257 29.046 28.526 28.2 29.56C27.354 30.5627 26.1947 31.064 24.722 31.064C23.4687 31.064 22.2467 30.9073 21.056 30.594C19.8967 30.2493 18.5337 30.077 16.967 30.077C14.9617 30.077 13.3793 30.6567 12.22 31.816C11.0607 32.9753 10.481 34.495 10.481 36.375C10.481 38.2237 11.0607 39.7747 12.22 41.028C13.3793 42.25 14.9617 42.861 16.967 42.861C18.0323 42.861 19.0037 42.7827 19.881 42.626C20.7897 42.438 21.667 42.25 22.513 42.062C23.3903 41.874 24.3303 41.78 25.333 41.78C26.9937 41.78 28.2157 42.3283 28.999 43.425C29.7823 44.4903 30.174 45.822 30.174 47.42C30.174 49.018 29.5943 50.3183 28.435 51.321C27.2757 52.2923 25.7403 52.9973 23.829 53.436C21.949 53.8747 19.8967 54.094 17.672 54.094Z"/>
<path d="M43.6432 54.282C41.1365 54.282 38.9588 53.5613 37.1102 52.12C35.2615 50.6473 33.8358 48.642 32.8332 46.104C31.8305 43.5347 31.3292 40.6363 31.3292 37.409C31.3292 34.401 31.7678 31.769 32.6452 29.513C33.5538 27.2257 34.7758 25.33 36.3112 23.826C37.8778 22.2907 39.6795 21.147 41.7162 20.395C43.7842 19.6117 45.9618 19.22 48.2492 19.22C52.4478 19.22 55.5498 19.8153 57.5552 21.006C59.5918 22.1653 60.6102 23.6693 60.6102 25.518C60.6102 26.9593 60.2342 28.2283 59.4822 29.325C58.7615 30.4217 57.6648 30.97 56.1922 30.97C55.1895 30.97 54.2338 30.876 53.3252 30.688C52.4478 30.5 51.5392 30.3277 50.5992 30.171C49.6905 29.983 48.6722 29.889 47.5442 29.889C45.0688 29.889 43.2828 30.594 42.1862 32.004C41.1208 33.414 40.5882 35.1843 40.5882 37.315C40.5882 39.0383 40.9328 40.4483 41.6222 41.545C42.3428 42.6417 43.2828 43.4563 44.4422 43.989C45.6328 44.4903 46.9488 44.741 48.3902 44.741C49.5808 44.741 50.6932 44.4747 51.7272 43.942C52.7612 43.4093 53.4192 42.4223 53.7012 40.981H51.3982C50.3015 40.981 49.4555 40.652 48.8602 39.994C48.2648 39.3047 47.9672 38.4273 47.9672 37.362C47.9672 36.2967 48.2648 35.435 48.8602 34.777C49.4555 34.119 50.3015 33.79 51.3982 33.79H57.0382C59.0748 33.79 60.5005 34.3383 61.3152 35.435C62.1612 36.5003 62.5842 38.0983 62.5842 40.229V49.018C62.5842 50.6473 62.1455 51.885 61.2682 52.731C60.3908 53.577 59.2315 54 57.7902 54C56.2548 54 55.0485 53.577 54.1712 52.731C53.2938 51.885 52.8552 50.6473 52.8552 49.018V46.104H52.0092C52.0092 48.9553 51.2885 51.039 49.8472 52.355C48.4058 53.6397 46.4788 54.282 44.0662 54.282H43.6432Z"/>
</mask>
<path d="M17.672 54.094C14.6013 54.094 11.8283 53.4673 9.353 52.214C6.909 50.9293 4.982 49.0337 3.572 46.527C2.162 44.0203 1.457 40.934 1.457 37.268C1.457 33.602 2.162 30.4373 3.572 27.774C5.01333 25.1107 6.97167 23.074 9.447 21.664C11.9537 20.2227 14.805 19.502 18.001 19.502C21.6983 19.502 24.534 20.019 26.508 21.053C28.482 22.087 29.469 23.6223 29.469 25.659C29.469 27.2257 29.046 28.526 28.2 29.56C27.354 30.5627 26.1947 31.064 24.722 31.064C23.4687 31.064 22.2467 30.9073 21.056 30.594C19.8967 30.2493 18.5337 30.077 16.967 30.077C14.9617 30.077 13.3793 30.6567 12.22 31.816C11.0607 32.9753 10.481 34.495 10.481 36.375C10.481 38.2237 11.0607 39.7747 12.22 41.028C13.3793 42.25 14.9617 42.861 16.967 42.861C18.0323 42.861 19.0037 42.7827 19.881 42.626C20.7897 42.438 21.667 42.25 22.513 42.062C23.3903 41.874 24.3303 41.78 25.333 41.78C26.9937 41.78 28.2157 42.3283 28.999 43.425C29.7823 44.4903 30.174 45.822 30.174 47.42C30.174 49.018 29.5943 50.3183 28.435 51.321C27.2757 52.2923 25.7403 52.9973 23.829 53.436C21.949 53.8747 19.8967 54.094 17.672 54.094Z" fill="#232946"/>
<path d="M43.6432 54.282C41.1365 54.282 38.9588 53.5613 37.1102 52.12C35.2615 50.6473 33.8358 48.642 32.8332 46.104C31.8305 43.5347 31.3292 40.6363 31.3292 37.409C31.3292 34.401 31.7678 31.769 32.6452 29.513C33.5538 27.2257 34.7758 25.33 36.3112 23.826C37.8778 22.2907 39.6795 21.147 41.7162 20.395C43.7842 19.6117 45.9618 19.22 48.2492 19.22C52.4478 19.22 55.5498 19.8153 57.5552 21.006C59.5918 22.1653 60.6102 23.6693 60.6102 25.518C60.6102 26.9593 60.2342 28.2283 59.4822 29.325C58.7615 30.4217 57.6648 30.97 56.1922 30.97C55.1895 30.97 54.2338 30.876 53.3252 30.688C52.4478 30.5 51.5392 30.3277 50.5992 30.171C49.6905 29.983 48.6722 29.889 47.5442 29.889C45.0688 29.889 43.2828 30.594 42.1862 32.004C41.1208 33.414 40.5882 35.1843 40.5882 37.315C40.5882 39.0383 40.9328 40.4483 41.6222 41.545C42.3428 42.6417 43.2828 43.4563 44.4422 43.989C45.6328 44.4903 46.9488 44.741 48.3902 44.741C49.5808 44.741 50.6932 44.4747 51.7272 43.942C52.7612 43.4093 53.4192 42.4223 53.7012 40.981H51.3982C50.3015 40.981 49.4555 40.652 48.8602 39.994C48.2648 39.3047 47.9672 38.4273 47.9672 37.362C47.9672 36.2967 48.2648 35.435 48.8602 34.777C49.4555 34.119 50.3015 33.79 51.3982 33.79H57.0382C59.0748 33.79 60.5005 34.3383 61.3152 35.435C62.1612 36.5003 62.5842 38.0983 62.5842 40.229V49.018C62.5842 50.6473 62.1455 51.885 61.2682 52.731C60.3908 53.577 59.2315 54 57.7902 54C56.2548 54 55.0485 53.577 54.1712 52.731C53.2938 51.885 52.8552 50.6473 52.8552 49.018V46.104H52.0092C52.0092 48.9553 51.2885 51.039 49.8472 52.355C48.4058 53.6397 46.4788 54.282 44.0662 54.282H43.6432Z" fill="#EEBBC3"/>
<path d="M9.353 52.214L8.88772 53.0992L8.89447 53.1027L8.90128 53.1062L9.353 52.214ZM3.572 46.527L4.44358 46.0367L4.44358 46.0367L3.572 46.527ZM3.572 27.774L2.69249 27.298L2.68821 27.3061L3.572 27.774ZM9.447 21.664L9.94196 22.5329L9.94547 22.5309L9.447 21.664ZM26.508 21.053L26.044 21.9388L26.044 21.9388L26.508 21.053ZM28.2 29.56L28.9643 30.2049L28.9692 30.1991L28.974 30.1932L28.2 29.56ZM21.056 30.594L20.771 31.5525L20.7862 31.557L20.8015 31.5611L21.056 30.594ZM12.22 31.816L11.5129 31.1089L11.5129 31.1089L12.22 31.816ZM12.22 41.028L11.4858 41.7071L11.4945 41.7163L12.22 41.028ZM19.881 42.626L20.0568 43.6104L20.0702 43.608L20.0836 43.6053L19.881 42.626ZM22.513 42.062L22.3035 41.0842L22.2961 41.0858L22.513 42.062ZM28.999 43.425L28.1852 44.0063L28.1934 44.0174L28.999 43.425ZM28.435 51.321L29.0772 52.0875L29.0832 52.0825L29.0892 52.0774L28.435 51.321ZM23.829 53.436L23.6053 52.4613L23.6018 52.4622L23.829 53.436ZM17.672 53.094C14.7413 53.094 12.1256 52.497 9.80473 51.3218L8.90128 53.1062C11.5311 54.4377 14.4614 55.094 17.672 55.094V53.094ZM9.81828 51.3288C7.55229 50.1377 5.76319 48.3827 4.44358 46.0367L2.70042 47.0173C4.20081 49.6846 6.26571 51.7209 8.88772 53.0992L9.81828 51.3288ZM4.44358 46.0367C3.13785 43.7154 2.457 40.8085 2.457 37.268H0.457C0.457 41.0595 1.18615 44.3252 2.70042 47.0173L4.44358 46.0367ZM2.457 37.268C2.457 33.7302 3.13693 30.7331 4.45579 28.2419L2.68821 27.3061C1.18707 30.1416 0.457 33.4738 0.457 37.268H2.457ZM4.45147 28.2499C5.80972 25.7401 7.63936 23.8445 9.94195 22.5329L8.95205 20.7951C6.30398 22.3035 4.21695 24.4812 2.69253 27.298L4.45147 28.2499ZM9.94547 22.5309C12.2849 21.1857 14.961 20.502 18.001 20.502V18.502C14.649 18.502 11.6224 19.2596 8.94853 20.7971L9.94547 22.5309ZM18.001 20.502C21.6307 20.502 24.278 21.0138 26.044 21.9388L26.972 20.1672C24.79 19.0242 21.766 18.502 18.001 18.502V20.502ZM26.044 21.9388C26.9112 22.3931 27.5064 22.9278 27.8876 23.5208C28.2656 24.1088 28.469 24.8095 28.469 25.659H30.469C30.469 24.4719 30.1789 23.3865 29.5699 22.4392C28.9641 21.4968 28.0788 20.7469 26.972 20.1672L26.044 21.9388ZM28.469 25.659C28.469 27.0366 28.1015 28.1013 27.426 28.9268L28.974 30.1932C29.9905 28.9507 30.469 27.4148 30.469 25.659H28.469ZM27.4357 28.9151C26.8044 29.6633 25.9406 30.064 24.722 30.064V32.064C26.4487 32.064 27.9036 31.462 28.9643 30.2049L27.4357 28.9151ZM24.722 30.064C23.553 30.064 22.4166 29.918 21.3105 29.6269L20.8015 31.5611C22.0767 31.8967 23.3843 32.064 24.722 32.064V30.064ZM21.341 29.6355C20.0665 29.2566 18.6033 29.077 16.967 29.077V31.077C18.464 31.077 19.7268 31.2421 20.771 31.5525L21.341 29.6355ZM16.967 29.077C14.7594 29.077 12.9 29.7218 11.5129 31.1089L12.9271 32.5231C13.8586 31.5916 15.1639 31.077 16.967 31.077V29.077ZM11.5129 31.1089C10.1381 32.4836 9.481 34.272 9.481 36.375H11.481C11.481 34.718 11.9832 33.467 12.9271 32.5231L11.5129 31.1089ZM9.481 36.375C9.481 38.4527 10.1408 40.2529 11.4859 41.707L12.9541 40.349C11.9805 39.2965 11.481 37.9946 11.481 36.375H9.481ZM11.4945 41.7163C12.8784 43.1749 14.7439 43.861 16.967 43.861V41.861C15.1795 41.861 13.8803 41.3251 12.9455 40.3397L11.4945 41.7163ZM16.967 43.861C18.0803 43.861 19.1115 43.7792 20.0568 43.6104L19.7052 41.6416C18.8958 41.7861 17.9844 41.861 16.967 41.861V43.861ZM20.0836 43.6053C20.9967 43.4163 21.8788 43.2273 22.7299 43.0382L22.2961 41.0858C21.4552 41.2727 20.5826 41.4597 19.6784 41.6467L20.0836 43.6053ZM22.7225 43.0398C23.5235 42.8682 24.3927 42.78 25.333 42.78V40.78C24.268 40.78 23.2572 40.8798 22.3035 41.0842L22.7225 43.0398ZM25.333 42.78C26.755 42.78 27.6338 43.2342 28.1853 44.0062L29.8127 42.8438C28.7975 41.4225 27.2323 40.78 25.333 40.78V42.78ZM28.1934 44.0174C28.8259 44.8777 29.174 45.9896 29.174 47.42H31.174C31.174 45.6544 30.7388 44.103 29.8047 42.8326L28.1934 44.0174ZM29.174 47.42C29.174 48.7417 28.7101 49.761 27.7808 50.5646L29.0892 52.0774C30.4786 50.8757 31.174 49.2943 31.174 47.42H29.174ZM27.7928 50.5545C26.7851 51.3988 25.4068 52.0479 23.6053 52.4613L24.0527 54.4107C26.0739 53.9468 27.7663 53.1859 29.0772 52.0875L27.7928 50.5545ZM23.6018 52.4622C21.8065 52.881 19.8315 53.094 17.672 53.094V55.094C19.9618 55.094 22.0915 54.8683 24.0562 54.4098L23.6018 52.4622ZM37.1102 52.12L36.4871 52.9022L36.4953 52.9086L37.1102 52.12ZM32.8332 46.104L31.9016 46.4675L31.9031 46.4714L32.8332 46.104ZM32.6452 29.513L31.7158 29.1438L31.7132 29.1506L32.6452 29.513ZM36.3112 23.826L37.011 24.5404L37.0111 24.5402L36.3112 23.826ZM41.7162 20.395L42.0626 21.3331L42.0704 21.3302L41.7162 20.395ZM57.5552 21.006L57.0446 21.8659L57.0525 21.8705L57.0605 21.8751L57.5552 21.006ZM59.4822 29.325L58.6574 28.7595L58.6519 28.7676L58.6465 28.7758L59.4822 29.325ZM53.3252 30.688L53.1156 31.6658L53.1226 31.6673L53.3252 30.688ZM50.5992 30.171L50.3966 31.1503L50.4156 31.1542L50.4348 31.1574L50.5992 30.171ZM42.1862 32.004L41.3967 31.39L41.3883 31.4012L42.1862 32.004ZM41.6222 41.545L40.7755 42.0772L40.7809 42.0857L40.7865 42.0942L41.6222 41.545ZM44.4422 43.989L44.0247 44.8977L44.0393 44.9044L44.0541 44.9106L44.4422 43.989ZM51.7272 43.942L52.1851 44.831L51.7272 43.942ZM53.7012 40.981L54.6826 41.173L54.9158 39.981H53.7012V40.981ZM48.8602 39.994L48.1033 40.6476L48.1109 40.6564L48.1186 40.6649L48.8602 39.994ZM61.3152 35.435L60.5124 36.0313L60.522 36.0443L60.5321 36.0569L61.3152 35.435ZM54.1712 52.731L54.8653 52.0112L54.8653 52.0112L54.1712 52.731ZM52.8552 46.104H53.8552V45.104H52.8552V46.104ZM52.0092 46.104V45.104H51.0092V46.104H52.0092ZM49.8472 52.355L50.5126 53.1016L50.5214 53.0935L49.8472 52.355ZM43.6432 53.282C41.3428 53.282 39.3854 52.6259 37.725 51.3314L36.4953 52.9086C38.5323 54.4968 40.9302 55.282 43.6432 55.282V53.282ZM37.7332 51.3378C36.0414 49.9901 34.7117 48.1373 33.7632 45.7366L31.9031 46.4714C32.96 49.1467 34.4817 51.3046 36.4871 52.9022L37.7332 51.3378ZM33.7647 45.7405C32.8143 43.3049 32.3292 40.5328 32.3292 37.409H30.3292C30.3292 40.7399 30.8467 43.7644 31.9016 46.4675L33.7647 45.7405ZM32.3292 37.409C32.3292 34.496 32.7542 31.9916 33.5772 29.8754L31.7132 29.1506C30.7815 31.5464 30.3292 34.306 30.3292 37.409H32.3292ZM33.5745 29.8822C34.4391 27.7059 35.5889 25.9334 37.011 24.5404L35.6114 23.1116C33.9628 24.7266 32.6686 26.7454 31.7158 29.1438L33.5745 29.8822ZM37.0111 24.5402C38.4781 23.1026 40.1596 22.0357 42.0625 21.3331L41.3698 19.4569C39.1994 20.2583 37.2776 21.4788 35.6112 23.1118L37.0111 24.5402ZM42.0704 21.3302C44.0213 20.5912 46.0786 20.22 48.2492 20.22V18.22C45.845 18.22 43.547 18.6322 41.3619 19.4598L42.0704 21.3302ZM48.2492 20.22C52.3917 20.22 55.2735 20.8143 57.0446 21.8659L58.0657 20.1461C55.8262 18.8164 52.5039 18.22 48.2492 18.22V20.22ZM57.0605 21.8751C58.8819 22.9119 59.6102 24.1282 59.6102 25.518H61.6102C61.6102 23.2105 60.3017 21.4188 58.0499 20.1369L57.0605 21.8751ZM59.6102 25.518C59.6102 26.7752 59.2856 27.8434 58.6574 28.7595L60.3069 29.8905C61.1827 28.6133 61.6102 27.1434 61.6102 25.518H59.6102ZM58.6465 28.7758C58.1358 29.5529 57.3765 29.97 56.1922 29.97V31.97C57.9531 31.97 59.3872 31.2904 60.3179 29.8742L58.6465 28.7758ZM56.1922 29.97C55.2522 29.97 54.3647 29.8819 53.5278 29.7087L53.1226 31.6673C54.103 31.8701 55.1269 31.97 56.1922 31.97V29.97ZM53.5347 29.7102C52.6415 29.5188 51.7178 29.3436 50.7636 29.1846L50.4348 31.1574C51.3606 31.3117 52.2542 31.4812 53.1156 31.6658L53.5347 29.7102ZM50.8018 29.1917C49.814 28.9874 48.7262 28.889 47.5442 28.889V30.889C48.6181 30.889 49.567 30.9786 50.3966 31.1503L50.8018 29.1917ZM47.5442 28.889C44.8867 28.889 42.749 29.6516 41.3968 31.3901L42.9755 32.6179C43.8167 31.5364 45.251 30.889 47.5442 30.889V28.889ZM41.3883 31.4012C40.1665 33.0182 39.5882 35.0127 39.5882 37.315H41.5882C41.5882 35.3559 42.0751 33.8098 42.984 32.6068L41.3883 31.4012ZM39.5882 37.315C39.5882 39.166 39.958 40.7765 40.7755 42.0772L42.4688 41.0128C41.9077 40.1201 41.5882 38.9107 41.5882 37.315H39.5882ZM40.7865 42.0942C41.607 43.3428 42.6899 44.2844 44.0247 44.8977L44.8597 43.0803C43.8757 42.6282 43.0787 41.9405 42.4579 40.9958L40.7865 42.0942ZM44.0541 44.9106C45.3811 45.4694 46.831 45.741 48.3902 45.741V43.741C47.0667 43.741 45.8846 43.5113 44.8302 43.0674L44.0541 44.9106ZM48.3902 45.741C49.7362 45.741 51.0061 45.4384 52.1851 44.831L51.2692 43.053C50.3803 43.511 49.4254 43.741 48.3902 43.741V45.741ZM52.1851 44.831C53.5606 44.1224 54.3587 42.8282 54.6826 41.173L52.7198 40.789C52.4796 42.0165 51.9617 42.6963 51.2692 43.053L52.1851 44.831ZM53.7012 39.981H51.3982V41.981H53.7012V39.981ZM51.3982 39.981C50.5123 39.981 49.9641 39.7236 49.6017 39.3231L48.1186 40.6649C48.9469 41.5804 50.0908 41.981 51.3982 41.981V39.981ZM49.617 39.3404C49.2045 38.8628 48.9672 38.2303 48.9672 37.362H46.9672C46.9672 38.6243 47.3252 39.7466 48.1033 40.6476L49.617 39.3404ZM48.9672 37.362C48.9672 36.4922 49.2048 35.8866 49.6017 35.4479L48.1186 34.1061C47.3248 34.9834 46.9672 36.1011 46.9672 37.362H48.9672ZM49.6017 35.4479C49.9641 35.0474 50.5123 34.79 51.3982 34.79V32.79C50.0908 32.79 48.9469 33.1906 48.1186 34.1061L49.6017 35.4479ZM51.3982 34.79H57.0382V32.79H51.3982V34.79ZM57.0382 34.79C58.9201 34.79 59.9656 35.2951 60.5124 36.0313L62.1179 34.8387C61.0355 33.3815 59.2296 32.79 57.0382 32.79V34.79ZM60.5321 36.0569C61.1777 36.8699 61.5842 38.2039 61.5842 40.229H63.5842C63.5842 37.9928 63.1447 36.1308 62.0983 34.8131L60.5321 36.0569ZM61.5842 40.229V49.018H63.5842V40.229H61.5842ZM61.5842 49.018C61.5842 50.4708 61.1968 51.4107 60.574 52.0112L61.9623 53.4508C63.0943 52.3593 63.5842 50.8239 63.5842 49.018H61.5842ZM60.574 52.0112C59.9166 52.6452 59.0231 53 57.7902 53V55C59.4399 55 60.8651 54.5088 61.9623 53.4508L60.574 52.0112ZM57.7902 53C56.4433 53 55.5111 52.6338 54.8653 52.0112L53.477 53.4508C54.586 54.5202 56.0664 55 57.7902 55V53ZM54.8653 52.0112C54.2426 51.4107 53.8552 50.4708 53.8552 49.018H51.8552C51.8552 50.8239 52.3451 52.3593 53.477 53.4508L54.8653 52.0112ZM53.8552 49.018V46.104H51.8552V49.018H53.8552ZM52.8552 45.104H52.0092V47.104H52.8552V45.104ZM51.0092 46.104C51.0092 48.8055 50.3264 50.5633 49.1729 51.6165L50.5214 53.0935C52.2506 51.5147 53.0092 49.1051 53.0092 46.104H51.0092ZM49.1818 51.6085C47.9661 52.692 46.2971 53.282 44.0662 53.282V55.282C46.6606 55.282 48.8455 54.5873 50.5125 53.1015L49.1818 51.6085ZM44.0662 53.282H43.6432V55.282H44.0662V53.282Z" fill="white" mask="url(#path-1-outside-1_399_348)"/>
</svg>
