<svg width="16" height="16" viewBox="0 0 16 16" fill="none" xmlns="http://www.w3.org/2000/svg">
<rect width="16" height="16" fill="#232946"/>
<path d="M15 8.7C14.6479 12.2373 11.6561 15 8.01732 15C4.14176 15 1 11.866 1 8C1 4.13401 4.14176 1 8.01732 1C11.5756 1 14.5154 3.64193 14.9728 7.06667H13.1634V8.7H15Z" fill="#F2F5FC"/>
<path d="M13.3973 7.88333C13.3973 10.7828 11.041 13.1333 8.13428 13.1333C5.22761 13.1333 2.87129 10.7828 2.87129 7.88333C2.87129 4.98384 5.22761 2.63333 8.13428 2.63333C11.041 2.63333 13.3973 4.98384 13.3973 7.88333Z" fill="#232946"/>
<path d="M8.13428 12.6667C10.7826 12.6667 12.9295 10.5251 12.9295 7.88333C12.9295 7.60491 12.9056 7.33205 12.8598 7.06667H12.6955V8.46667H10.8911C10.8911 8.33138 10.9315 7.66271 10.9315 7.98298C10.9315 9.57905 9.63439 10.8729 8.03438 10.8729C6.43437 10.8729 5.1373 9.57905 5.1373 7.98298C5.1373 6.38692 6.43437 5.09305 8.03438 5.09305C9.22482 5.09305 10.2476 5.80929 10.6932 6.83333H12.8136C12.3338 4.69666 10.421 3.1 8.13428 3.1C5.48598 3.1 3.33911 5.24157 3.33911 7.88333C3.33911 10.5251 5.48598 12.6667 8.13428 12.6667Z" fill="#F2F5FC"/>
<path d="M7.78341 7.06667H10.2395H12.6955V8.46667H7.78341V7.06667Z" fill="#F2F5FC"/>
</svg>
